<?xml version="1.0" encoding="utf-8"?>
<!-- Generator: Adobe Illustrator 16.0.0, SVG Export Plug-In . SVG Version: 6.00 Build 0)  -->
<!DOCTYPE svg PUBLIC "-//W3C//DTD SVG 1.1//EN" "http://www.w3.org/Graphics/SVG/1.1/DTD/svg11.dtd">
<svg version="1.1" xmlns="http://www.w3.org/2000/svg" xmlns:xlink="http://www.w3.org/1999/xlink" x="0px" y="0px" width="919px"
	 height="958px" viewBox="500.5 61 919 958" enable-background="new 500.5 61 919 958" xml:space="preserve">
<g id="triangles">
	<polygon fill="#44CBB1" fill-opacity="0.2706" points="924.193,368.058 585.713,593.923 559.026,186.368 	"/>
	<polygon fill="#4A9A34" fill-opacity="0.3804" points="584.221,627.979 578.514,600.209 564.455,312.832 	"/>
	<polygon fill="#F79756" fill-opacity="0.3804" points="559.996,271.972 711.322,102.717 992.109,142.54 	"/>
	<polygon fill="#F79756" fill-opacity="0.3804" points="869.671,90.127 1060.145,164.151 749.726,112.613 	"/>
	<polygon fill="#984208" fill-opacity="0.3804" points="1010.321,131.216 977.243,113.52 978.33,156.531 	"/>
	<polygon fill="#984208" fill-opacity="0.3804" points="1016.3,118.515 995.745,163.961 1063.335,155.569 	"/>
	<polygon fill="#984208" fill-opacity="0.3804" points="1042.511,137.914 980.424,164.673 986.665,97.356 	"/>
	<polygon fill="#984208" fill-opacity="0.3804" points="1067.214,218.8 1040.561,160.43 1103.492,166.132 	"/>
	<polygon fill="#F8751D" fill-opacity="0.3804" points="887.979,81.002 920.969,176.051 986.622,100.088 	"/>
	<polygon fill="#FB9C5D" fill-opacity="0.3804" points="964.957,178.851 956.359,91.186 1036.869,128.498 	"/>
	<polygon fill="#F79756" fill-opacity="0.3804" points="1064.603,166.479 680.156,249.711 1035.873,126.232 	"/>
	<polygon fill="#984208" fill-opacity="0.3765" points="1083.396,218.577 1116.9,157.496 1046.854,159.375 	"/>
	<polygon fill="#FD9752" fill-opacity="0.3804" points="1048.453,205.979 1028.706,181.436 1017.55,211.423 	"/>
	<polygon fill="#FD9752" fill-opacity="0.3804" points="1007.392,244.636 986.076,218.729 1022.146,213.241 	"/>
	<polygon fill="#FD9752" fill-opacity="0.3804" points="958.438,256.707 969.146,268.629 971.481,251.524 	"/>
	<polygon fill="#FD9752" fill-opacity="0.3804" points="982.102,256.125 991.696,230.254 963.879,234.915 	"/>
	<polygon fill="#F79756" fill-opacity="0.3686" points="954.701,284.085 939.474,260.146 968.426,258.58 	"/>
	<polygon fill="#2E7A19" fill-opacity="0.3804" points="1073.876,205.315 1374.96,355.441 1204.063,599.069 	"/>
	<polygon fill="#88D5C6" fill-opacity="0.3804" points="1063.908,196.595 966.403,711.101 1213.247,569.569 	"/>
	<polygon fill="#F79756" fill-opacity="0.3804" points="559.785,272.239 1065.511,153.551 711.237,102.758 	"/>
	<polygon fill="#984208" fill-opacity="0.3804" points="664.723,145.166 603.457,176.712 662.422,215.785 	"/>
	<polygon fill="#984208" fill-opacity="0.3804" points="559.01,237.428 651.282,259.967 624.095,167.965 	"/>
	<polygon fill="#7DCC67" fill-opacity="0.3804" points="886.054,322.916 812.622,724.757 1068.028,163.292 	"/>
	<polygon fill="#F79756" fill-opacity="0.3804" points="828.018,805.1 694.271,995.725 683.737,901.754 	"/>
	<polygon fill="#7DCC67" fill-opacity="0.3804" points="748.671,861.055 982.964,714.783 1060.506,179.728 	"/>
	<polygon fill="#91CA82" fill-opacity="0.3804" points="571.187,588.742 881.385,341.737 713.747,968.641 	"/>
	<polygon fill="#67CCB9" fill-opacity="0.3804" points="584.654,595.958 1063.787,175.254 561.158,270.555 	"/>
	<polygon fill="#FB9C5D" fill-opacity="0.3804" points="587.164,645.799 560.037,270.298 535.191,369.522 	"/>
	<polygon fill="#7DCC67" fill-opacity="0.3804" points="812.419,728.021 886.085,324.897 1063.033,169.89 	"/>
	<polygon fill="#FDB889" fill-opacity="0.3804" points="991.938,242.592 1006.994,240.196 997.312,228.014 	"/>
	<polygon fill="#FDB889" fill-opacity="0.3804" points="1034.285,233.61 1022.126,207.581 1005.144,230.746 	"/>
	<polygon fill="#FDB889" fill-opacity="0.3804" points="1069.495,229.478 1037.354,182.113 1012.871,233.61 	"/>
	<polygon fill="#FDB889" fill-opacity="0.3804" points="698.554,892.957 864.833,326.54 826.513,805.712 	"/>
	<polygon fill="#984208" fill-opacity="0.3804" points="1128.73,162.592 1087.445,158.689 1104.99,196.144 	"/>
	<polygon fill="#7DCC67" fill-opacity="0.3804" points="1069.125,160.129 1135.827,279.347 1205.557,162.125 	"/>
	<polygon fill="#FDB889" fill-opacity="0.3804" points="1094.055,238.786 1094.165,151.364 1018.324,195.051 	"/>
	<polygon fill="#86D1C3" fill-opacity="0.3804" points="848.088,365.463 584.94,475.658 812.147,648.507 	"/>
	<polygon fill="#86D1C3" fill-opacity="0.3804" points="731.984,527.009 602.313,637.084 571.906,469.811 	"/>
	<polygon fill="#86D1C3" fill-opacity="0.3804" points="572.083,254.566 586.899,299.529 618.307,264.035 	"/>
	<polygon fill="#86D1C3" fill-opacity="0.3804" points="633.131,323.66 699.659,263.756 614.488,236.116 	"/>
	<polygon fill="#86D1C3" fill-opacity="0.3804" points="725.659,374.568 638.456,206.18 827.918,214.977 	"/>
	<polygon fill="#86D1C3" fill-opacity="0.3804" points="917.09,330.682 764.944,217.087 939.406,142.384 	"/>
	<polygon fill="#86D1C3" fill-opacity="0.3804" points="1076.168,164.773 963.543,294.622 907.306,132.1 	"/>
	<polygon fill="#7DCC67" fill-opacity="0.3804" points="1133.334,360.713 1310.286,210.035 1091.47,131.924 	"/>
	<polygon fill="#7DCC67" fill-opacity="0.3804" points="1148.817,344.003 1379.875,400.28 1313.072,171.867 	"/>
	<polygon fill="#25A702" fill-opacity="0.3804" points="1170.86,414.961 1162.824,603.591 1284.504,502.705 	"/>
	<polygon fill="#86D1C3" fill-opacity="0.3804" points="931.395,371.974 1140.428,426.573 1083.125,218.357 	"/>
	<polygon fill="#86D1C3" fill-opacity="0.3804" points="1152.452,390.451 1016.273,598.488 904.201,376.582 	"/>
	<polygon fill="#86D1C3" fill-opacity="0.3804" points="1052.219,629.658 1044.913,524.772 957.705,583.474 	"/>
	<polygon fill="#86D1C3" fill-opacity="0.3804" points="1061.407,616.921 992.051,687.299 965.869,592.078 	"/>
	<polygon fill="#FDB889" fill-opacity="0.3804" points="1193.65,164.108 1242.204,171.422 1211.555,209.908 	"/>
	<polygon fill="#FDB889" fill-opacity="0.3804" points="1230.414,169.558 1281.55,194.621 1234.372,226.436 	"/>
	<polygon fill="#FDB889" fill-opacity="0.3804" points="1276.719,189.281 1276.76,235.395 1316.863,212.381 	"/>
	<polygon fill="#FDB889" fill-opacity="0.3804" points="1258.666,371.928 1369.863,372.662 1313.492,468.582 	"/>
	<polygon fill="#FDB889" fill-opacity="0.3804" points="1238.197,537.855 1332.987,449.841 1209.305,411.729 	"/>
</g>
<g id="stem">
	<path fill-rule="evenodd" clip-rule="evenodd" fill="#333333" d="M1296.341,486.078c1.281-1.379,2.545-2.74,3.746-4.034
		c2.575,2.548,1.931,6.094,2.677,9.082c1.367,5.472,2.563,11.087,3.352,16.65c0.554,3.905,1.943,7.896,1.317,11.908
		c-0.397,2.544,1.269,4.474,1.291,6.884c0.021,2.287-1.139,4.853,1.003,6.915c0.281,0.272,0.137,1.111,0.022,1.651
		c-0.831,3.926,1.357,7.52,1.185,11.396c-0.177,3.945-0.669,8.028,0.083,11.833c1.94,9.82,0.692,19.667,0.951,29.489
		c0.257,9.782-0.053,19.578,0.124,29.364c0.051,2.8-1.64,5.149-1.274,8.015c0.354,2.778,0.077,5.638,0.077,8.461
		c0,0.908,0,1.815,0,2.805c1.398,0.102,1.086-0.785,1.115-1.34c0.051-0.938,0.073-1.887-0.002-2.821
		c-0.076-0.93,1.143-1.322,1.057-1.786c-0.59-3.206,1.148-6.03,1.365-9.129c0.204-2.917,1.042-5.883,1.744-8.801
		c0.614-2.557,1.156-5.224,1.482-7.88c0.152-1.248-0.208-2.501,0.997-3.596c0.478-0.433,0.479-1.983,0.087-2.677
		c-1.88-3.316-1.104-6.889-0.957-10.292c0.13-3.016-1.64-5.555-1.313-8.581c0.323-2.977,0.436-6.071-0.017-9.015
		c-0.638-4.147-1.881-8.203-2.944-12.627c0.872-1.577,2.157-3.438,1.946-5.945c-0.204-2.432-0.228-4.908,0.003-7.334
		c0.285-2.988-1.604-5.552-1.246-8.581c0.328-2.785,0.688-5.827-0.095-8.414c-0.881-2.911-0.612-5.761-1.018-8.61
		c-1.128-7.912-1.695-16.037-4.624-23.486c-2.024-5.151-3.439-10.646-6.596-15.342c-0.173-0.257-0.022-0.73-0.022-1.047
		c0.391-0.594,0.937-0.619,1.759-0.573c4.137,9.029,8.475,18.096,10.115,28.186c1.592-12.846-0.502-25.026-6.09-36.746
		c0.372-0.791,1.973-1.105,0.282-3.302c1.383,0.857,1.738,0.958,1.891,1.19c1.347,2.051,2.961,4.106,3.228,6.532
		c0.202,1.832,1.551,2.418,2.221,3.37c0.669,2.848-0.416,5.517,1.12,8.292c1.23,2.225-0.659,5.345,1.173,7.995
		c0.704,1.019,0.146,2.934,0.109,4.438c-0.265,10.785,1.99,21.482,1.135,32.288c2.07,5.183,0.241,10.71,1.258,15.884
		c1.451,7.393,0.473,14.789,1.107,22.138c0.296,3.439,1.637,6.809,2.715,10.143c0.215,0.665,0.572,1.272,0.572,2.018
		c-0.008,5.836,0.724,11.793-0.229,17.469c-0.806,4.801-0.799,9.502-0.856,14.254c-0.032,2.684-0.41,5.35,0.929,8.077
		c0.819,1.669,0.885,4.502-0.023,6.034c-1.314,2.218-0.783,4.293-0.912,6.415c-0.172,2.813,0.81,6.033-0.256,8.371
		c-1.369,3.009,0.184,6.164-1.095,8.57c-1.338,2.521-0.191,5.328-1.943,7.731c-0.806,1.106-0.138,3.288-0.138,4.998
		c-0.747,0.993-1.87,1.89-2.199,3.019c-2.348,8.044-5.408,15.858-8.182,23.739c-1.736,4.932-2.754,10.132-5.042,14.834
		c-0.938,1.928-0.224,3.813-0.947,5.817c-2.39,6.613-6.021,12.577-9.004,18.866c-4.366,9.201-9.515,17.963-14.975,26.588
		c-3.265,5.156-5.724,10.863-9.336,15.866c0.779,2.835-2.022,4.043-2.925,6.127c-0.834,1.926-1.181,4.042-2.286,5.83
		c-0.556,0.898-0.43,2.204-1.579,2.734c-5.08,2.337-5.179,7.981-7.875,11.901c-0.37,0.539,0.368,1.562-0.451,2.049
		c-0.933,0.556-0.479,1.729-1.047,2.321c-2.066,0.513-2.445-1.523-3.89-2.229c-1.39,0.106-2.565,2.001-4.403,1.01
		c-0.109-0.234-0.365-0.543-0.385-0.866c-0.058-0.938-0.415-2.313,0.055-2.741c1.362-1.245,0.574-2.903,1.162-4.076
		c0.713-1.423,0.308-2.367-0.052-3.652c-0.755-2.701,1.03-5.077,2.349-6.848c3.303-4.436,5.26-9.623,8.745-13.987
		c2.984-3.738,5.693-7.784,8.625-11.603c4.119-5.364,7.045-11.344,9.433-17.565c0.417-1.086,0.971-2.459,1.451-3.338
		c6.066-11.072,10.27-22.907,14.036-34.854c1.086-3.444,2.174-7.059,2.954-10.697c0.711-3.313,2.431-6.722,2.918-9.976
		c0.715-4.784,2.515-9.397,2.477-14.272c-0.014-1.702,1.125-2.91,1.352-4.591c0.359-2.666,0.284-5.632,1.191-7.932
		c1.038-2.632,0.691-5.047,0.828-7.537c0.119-2.186,1.674-3.942,1.289-6.322c-0.303-1.871-0.567-3.948,0.94-5.801
		c0.554-0.68,0.09-2.187,0.09-3.315c0-4.895-0.737-9.931,0.166-14.652c1.489-7.783,0.734-15.529,0.921-23.284
		c0.19-7.901,0.012-15.812,0.056-23.717c0.021-3.846-1.613-7.457-1.222-11.399c0.369-3.729,0.726-7.672-0.097-11.248
		c-0.885-3.849-0.289-7.735-1.126-11.393c-0.706-3.09-0.32-6.25-1.117-9.127c-0.856-3.093-0.348-6.245-1.136-9.132
		c-0.69-2.528-0.756-4.97-1.012-7.479c-0.235-2.301-1.653-4.432-1.081-6.878c-2.476-1.781,0.258-5.208-2.209-6.992
		C1298.076,492.63,1295.3,489.49,1296.341,486.078z M1315.099,656.884c-1.474,0.99-0.341,2.72-0.855,3.877
		c-2.773,6.234-4.459,12.831-6.509,19.299c-1.475,4.653-2.585,9.411-4.684,13.863c-0.311,0.66-0.436,1.844,0.891,3.033
		c-0.271-1.687,0.964-2.394,1.271-3.499c1.911-6.893,4.396-13.586,6.726-20.34c1.782-5.165,4.916-10.15,3.479-16.059
		c0.542,0.098,0.884-0.152,1.001-0.668c0.02-0.088-0.244-0.353-0.332-0.332C1315.57,656.175,1315.32,656.518,1315.099,656.884z
		 M1318.092,617.719c0.145,2.854-1.319,5.327-1.48,7.966c-0.177,2.896-2.014,5.534-1.199,8.54c-2.33,2.046,0.1,5.482-2.203,7.536
		c0.664,2.988-1.384,5.581-1.211,8.523c0.153,2.614-2.414,5.021-0.431,8.147C1315.953,644.995,1319.976,631.811,1318.092,617.719z
		 M1310.303,643.665c0.879-1.435,0.716-2.441,0.048-3.69C1309.54,641.289,1309.592,642.289,1310.303,643.665z"/>
</g>
</svg>
